<svg width="1440" height="820" viewBox="0 0 1440 820" fill="none" xmlns="http://www.w3.org/2000/svg">
<mask id="path-1-inside-1" fill="white">
<rect width="1440" height="820" rx="10"/>
</mask>
<rect width="1440" height="820" rx="10" stroke="black" stroke-width="100" mask="url(#path-1-inside-1)"/>
<path d="M282.54 527.14L368.06 525.24L369.34 515.7L337.42 512.84C337.42 512.84 339.02 505.2 339.02 495.66V331.96L342.54 328.46H371.58C395.82 328.46 406.36 334.82 405.38 367.26H417.2L427.1 312.26C427.1 312.26 417.2 314.16 404.1 314.16H251.3C238.2 314.16 229.9 312.26 229.9 312.26L220 367.26H231.48C243.94 334.82 253.5 328.46 274.88 328.46H304.56V495.66C304.56 507.12 296.26 514.74 282.56 516.34V527.14H282.54ZM414.36 457.2C414.36 494.72 437.98 530 483.94 530C522.86 530 539.78 499.16 539.78 499.16L536.26 491.22C536.26 491.22 520.94 505.52 496.38 505.52C461.92 505.52 447.88 479.78 445.64 452.76L448.52 448.94L522.86 438.14C529.26 437.18 540.42 433.04 540.42 433.04C539.14 396.18 512.34 378.68 484.24 378.68C444.36 378.68 414.36 413.66 414.36 457.2ZM478.5 392.04C504.36 392.04 506.26 428.28 506.26 428.28L445.64 436.22C447.56 412.38 459.04 392.04 478.5 392.04V392.04ZM561.46 457.52C561.46 494.4 585.38 530 630.06 530C668.98 530 684.62 501.08 684.62 501.08L681.12 493.44C681.12 493.44 666.76 505.52 643.78 505.52C608.04 505.52 592.72 477.86 592.72 446.4C592.72 416.84 606.12 390.76 630.06 390.76C652.4 390.76 653.36 416.52 670.26 416.52C678.88 416.52 683.98 410.16 683.98 403.48C683.98 392.68 671.86 386 658.14 382.18C654.881 375.439 653.14 368.066 653.04 360.58C653.04 335.14 671.22 316.7 703.44 316.7C717.5 316.7 720.04 320.84 720.04 335.78V496.62C720.04 508.06 714.94 515.7 700.9 517.28V527.14L773.02 525.24L774.28 516.64L751 513.78C751 513.78 752.6 506.16 752.6 496.62V419.06C764.72 408.56 781.3 401.9 794.08 401.9C806.84 401.9 814.48 407.62 814.48 430.82V496.62C814.48 508.06 810.02 515.7 797.9 517.28V527.14L870.66 525.24L871.94 516.64L845.44 513.46C845.44 513.46 847.04 506.16 847.04 496.62V421.62C847.04 390.76 832.04 378.68 810.04 378.68C783.24 378.68 762.8 396.18 751.32 411.74C751.32 408.88 752.6 401.26 752.6 386V327.2C752.6 302.72 755.8 290.96 755.8 290.96L754.8 290C754.8 290 726.4 299.86 706 302.08C683.64 303.98 638.98 314.8 638.98 360.26C638.98 369.16 640.88 376.14 641.84 379C638.64 379 635.78 378.68 633.24 378.68C586.64 378.68 561.44 419.38 561.44 457.52H561.46ZM885.54 527.14L957.66 525.24L958.94 516.64L935.64 513.46C935.64 513.46 937.24 506.16 937.24 496.62V419.4C949.36 408.28 965.96 401.92 978.72 401.92C991.48 401.92 999.14 407.64 999.14 430.84V496.64C999.14 508.08 995.32 515.72 982.54 517.3V527.16L1054.98 525.26L1056.26 516.66L1030.1 513.48C1030.1 513.48 1031.7 506.18 1031.7 496.64V421.64C1031.7 390.78 1016.38 378.7 994.36 378.7C967.88 378.7 946.82 396.5 935.64 412.4C936.28 384.12 939.16 375.2 939.16 375.2L938.2 374.26C938.2 374.26 915.54 383.46 881.4 389.52V398.72H895.12C904.38 398.72 904.7 406.68 904.7 420.04V496.64C904.7 508.08 899.28 515.72 885.54 517.3V527.16V527.14ZM1069.4 457.52C1069.4 498.84 1096.5 530 1142.14 530C1194.48 530 1220 488.36 1220 448.62C1220 408.56 1193.84 378.68 1146.6 378.68C1091.4 378.68 1069.4 420.02 1069.4 457.52V457.52ZM1105.12 449.58C1105.12 419.7 1116.62 390.78 1143.1 390.78C1172.46 390.78 1183.94 426.06 1184.26 456.26C1184.26 485.5 1173.74 517.92 1146.6 517.92C1117.26 517.92 1105.12 481.04 1105.12 449.58Z" fill="black"/>
</svg>
